<svg width="100" height="100" viewBox="0 0 100 100" fill="none" xmlns="http://www.w3.org/2000/svg">
<path d="M80.1915 8.4653C80.2521 8.46945 80.3126 8.47399 80.3731 8.48278C80.6329 8.52072 80.8854 8.67482 81.0396 8.88674C81.7491 9.86115 81.3106 15.7943 81.0875 17.2166C80.7096 19.6226 80.1773 21.5504 79.1236 23.7517C78.86 24.3025 78.6124 24.864 78.2281 25.3437C77.379 26.4035 76.2809 27.2198 75.192 28.0144C75.7794 27.9295 76.6871 27.6988 77.2442 27.7049C77.4571 27.8127 77.7252 27.9468 77.8053 28.1917C78.0895 29.057 75.9908 34.1545 75.5646 35.2939C75.2687 36.086 75.0289 36.9379 74.6842 37.7049C74.1603 38.8705 73.5143 40.0239 72.8873 41.1383C71.1241 44.333 68.5436 47.002 65.4103 48.8721C64.2569 49.5469 62.1329 50.6162 60.8898 50.9644C61.7359 51.0337 63.6373 50.791 64.5152 50.6553C64.9269 50.5918 65.4254 50.4346 65.8546 50.4033C65.9791 50.3936 66.1046 50.4131 66.2203 50.461C67.2027 50.856 66.5299 51.6528 66.1456 52.1768C64.1788 54.8589 61.7716 57.0342 58.9605 58.8008C57.3517 59.8115 56.1725 60.3872 54.3854 61.1099C54.8097 61.1734 55.7008 61.3994 55.4557 61.9678C54.9269 63.1939 53.2262 64.605 52.1529 65.416C51.1437 66.1792 49.567 66.856 48.4007 67.3555C46.2206 68.0347 43.5439 68.2417 41.2817 68.002C40.7302 67.9434 40.2732 67.9551 39.7265 67.8311C38.9263 69.4898 38.3568 70.5601 37.7226 72.294C38.645 73.2725 39.126 74.3047 38.3143 75.5903C37.8716 76.2915 37.3989 76.4448 36.6371 76.6074C36.3624 77.0884 36.2127 77.6343 36.0717 78.1616C35.7636 79.2554 35.6056 80.3477 35.5655 81.4819C35.5187 82.8067 35.9368 83.6924 34.6423 84.5254C33.1047 85.5152 31.5139 86.4404 30.1027 87.6016C29.8172 87.8364 29.4671 88.0235 29.1746 88.2525C28.5631 88.7447 27.9648 89.2598 27.3536 89.7534C26.6525 90.1289 25.9326 91.2476 25.1439 91.3306C24.6135 91.3867 24.3847 90.7666 24.4227 90.3135C24.5236 89.1094 24.838 87.9185 24.9615 86.729C25.0963 85.5425 25.1778 84.3511 25.2056 83.1577C25.2292 82.3794 25.1985 81.5972 25.2342 80.8198C25.2483 80.5122 25.3023 80.1187 25.4403 79.8413C25.7392 79.2403 26.9547 78.4141 27.501 77.9209C28.2149 77.2759 30.477 75.022 30.6104 74.2066C30.6939 73.6968 30.4601 73.1035 30.4909 72.5611C30.5226 72.0054 30.6703 71.606 31.0922 71.2305C31.8019 70.5987 32.5487 70.4458 33.4669 70.4995C34.1887 68.8726 35.0978 67.2603 35.9112 65.6768C36.2379 65.0406 35.8308 64.5659 35.4729 64.0225C33.9828 61.7603 33.4879 58.8794 33.5355 56.211C33.5515 55.353 33.3677 54.815 34.3369 54.5108C34.9064 54.6494 35.0007 54.7266 35.3947 55.1196C35.211 54.3941 35.2088 53.9712 35.1569 53.2505C34.9939 50.9844 35.3231 48.7522 35.8565 46.5544C35.9964 45.9779 36.1055 45.4082 36.2781 44.8278C36.7327 43.2989 37.3962 41.9464 38.0627 40.5114C38.165 40.2911 38.3649 40.0502 38.6081 39.9843C39.7687 39.6696 39.7667 41.475 40.2445 41.7332C40.3425 41.6301 40.4238 39.7683 40.4562 39.4043C40.6564 37.1561 41.5728 35.6924 42.787 33.8353C45.4308 29.7703 48.727 26.1693 52.5431 23.1771C53.0548 22.7783 54.7257 21.337 55.3014 21.4381C56.1695 21.5905 56.3116 23.8282 56.6559 24.3468L56.7364 24.3579C57.2164 22.6963 58.065 19.6995 59.1886 18.3623C60.0856 17.2939 61.9103 16.1233 63.1163 15.3921C66.3824 13.4234 69.8189 11.7525 73.3844 10.3997C74.2125 10.0813 75.2828 9.7718 76.1334 9.48405C77.3434 9.07482 78.9337 8.56682 80.1915 8.4653ZM54.8126 23.1114C54.5367 23.4457 54.0323 23.8006 53.6891 24.0685C49.8434 27.0741 46.4961 30.6803 43.7938 34.747C43.5774 35.0726 43.4049 35.4612 43.2048 35.7989C41.5424 37.9667 41.6109 40.7527 41.7179 43.3514C41.761 44.3987 42.1007 45.6217 42.3295 46.6562C42.4183 47.0571 42.0596 47.4995 41.652 47.1809C40.6662 45.6531 39.5935 43.5417 38.8655 41.922C38.5685 42.4907 38.2972 43.084 38.0918 43.6748C36.6134 47.927 35.7551 52.4736 37.077 56.8897C37.4929 58.2793 36.7042 58.4947 35.9347 57.3994C35.6562 57.003 35.2105 56.6001 34.8247 56.3052C34.7991 58.6284 35.0252 60.0694 36.0002 62.2373C36.3157 62.939 36.5626 63.5576 37.1086 64.1436C37.6296 63.2271 38.0302 62.271 38.5223 61.3428C41.471 55.7803 44.6229 50.3252 48.1218 45.0899C48.2536 44.8925 48.3992 44.7012 48.532 44.5017C49.9723 42.3042 51.4703 40.1455 53.0255 38.0278C54.0602 36.6353 55.1554 35.3017 56.2403 33.9508C57.0592 32.9307 57.8736 31.8941 58.7374 30.9101C59.0304 30.5763 59.3546 30.2702 59.652 29.94C60.5152 28.9808 61.4142 27.9382 62.3243 27.0247C63.8194 25.5096 65.3731 24.0542 66.9825 22.6616C67.7491 21.9866 71.607 18.4569 72.3854 18.5235C72.6505 18.6796 72.6944 18.9767 72.4869 19.1566C69.5904 21.6706 66.8751 24.3854 64.2228 27.1597C63.8878 27.5102 63.5934 27.9116 63.2638 28.2683C63.0348 28.4948 62.5924 28.8925 62.4142 29.1357C61.8717 29.8769 61.2027 30.5111 60.6354 31.2144C59.2628 32.9165 58.0011 34.6815 56.775 36.4926C56.5304 36.8535 56.3399 37.2541 56.1021 37.6184C54.3907 40.254 52.7447 42.9312 51.1651 45.6477C47.7784 51.4986 44.2763 57.3281 41.309 63.4028C40.889 64.2627 40.0399 65.6665 39.77 66.5571C41.1169 66.5879 42.2269 66.7617 43.6526 66.7427C46.3909 66.7271 49.0587 65.8721 51.2955 64.293C52.3155 63.5864 52.5118 63.3736 53.3668 62.4893C52.5396 62.5083 47.5582 62.6929 47.1725 62.2642C47.0527 62.1309 47.0521 61.9937 47.0775 61.8311C47.2517 61.5132 48.4175 61.4195 48.7818 61.3531C54.5011 60.3135 61.0733 56.8067 64.526 51.9815C63.9386 52.127 63.2672 52.1958 62.669 52.2705C60.4156 52.5523 58.1695 52.5503 55.9166 52.2544C55.6861 52.2241 54.8478 52.1548 54.6939 52.043C54.5597 51.9473 54.4767 51.7949 54.4679 51.6304C54.4264 50.7398 55.8014 50.9844 56.3746 50.857C61.9576 49.6167 67.6012 46.8928 70.7794 41.9432C72.1315 39.8373 73.3541 37.6461 74.1563 35.266C71.816 36.9255 68.5226 38.5636 65.503 38.5562C65.4107 38.556 65.295 38.4906 65.2164 38.4427C64.964 38.0104 65.4796 37.8814 65.8023 37.7911C66.4767 37.6024 67.1695 37.4743 67.8312 37.2275C68.9313 36.8167 70.1271 36.3031 71.1764 35.777C71.9293 35.3997 72.6939 34.7565 73.3902 34.2778C74.2901 33.598 75.0475 33.0348 75.4239 31.9312C75.7359 31.0157 76.0558 30.1252 76.294 29.1814C75.6764 29.3036 70.9737 30.2524 71.4981 28.7834C72.4796 27.9809 73.9103 27.3245 74.9415 26.5183C75.6422 25.9705 76.4737 25.3058 77.0484 24.6119C78.7203 22.3035 79.6427 18.4077 79.9332 15.5901C80.0128 14.8144 80.1759 10.5348 79.943 10.0207L79.8541 9.98166C77.9342 10.2404 76.1026 10.9627 74.3019 11.6488C73.8761 11.8112 73.4464 11.9568 73.0182 12.1098C71.5387 12.6383 70.1441 13.3883 68.6998 14.0012C68.4991 14.0862 68.296 14.1659 68.1002 14.2618C66.2989 15.1507 64.5509 16.1426 62.8639 17.2328C62.0743 17.7422 60.6109 18.6636 60.0968 19.4227C58.8556 21.2543 58.3946 23.6446 57.8429 25.7486C57.6832 26.3576 57.6686 28.0466 56.6241 27.5912C56.1417 27.1046 55.0523 23.892 54.8126 23.1114ZM32.7801 71.69C31.7581 71.9653 31.0652 73.1602 32.3428 73.5884C32.8474 73.7573 33.3636 73.9761 33.8647 74.1572C34.4697 74.397 35.8639 75.147 36.4366 75.2241C37.691 75.1856 37.835 74.0127 37.0704 73.4346C36.0919 72.6944 34.0152 71.7256 32.7801 71.69ZM28.9718 82.3711C28.8136 81.9082 28.7089 81.4488 28.9437 80.982C29.248 80.3775 30.1184 80.1773 30.695 80.4961C30.9271 80.6211 31.0969 80.8374 31.1641 81.0923C31.3854 81.9414 30.864 82.3731 30.1696 82.6528L30.1071 82.6572C29.9848 82.6665 29.7938 82.668 29.734 82.7681C29.2758 83.5401 26.5817 88.2329 26.4809 88.7212L26.5154 88.7583C26.7277 88.7095 26.9828 88.2676 27.2294 88.1299C27.951 87.7256 28.4733 87.0855 29.1322 86.6192C30.2462 85.8301 31.2913 85.0596 32.447 84.3091C32.8051 84.0767 33.8613 83.6538 34.1575 83.2403C34.3292 82.2007 34.1683 80.8443 34.35 79.7163C34.6102 78.0996 34.9387 77.4458 35.4975 76.0386C34.672 75.6367 33.9027 75.1841 33.0182 74.9356C32.6573 74.834 32.2795 74.7031 31.9231 74.584C31.9167 74.5986 31.9102 74.6133 31.9037 74.6279C31.2055 75.9043 30.4662 76.7173 29.5127 77.7764C28.7275 78.648 27.1002 79.8159 26.6126 80.6001C26.5532 80.6953 26.5907 83.0108 26.5651 83.4307C26.4626 85.1319 26.2472 86.8242 25.9206 88.4971C26.5278 87.5498 26.5771 87.1411 27.021 86.2827C27.7515 84.8701 28.3337 83.8467 28.9718 82.3711ZM57.6021 33.78C56.4586 34.9267 55.3204 36.6014 54.3102 37.8965C51.5953 41.3765 49.2765 45.1042 46.9213 48.824C44.97 51.8716 43.1208 54.9839 41.377 58.1548C40.7354 59.2984 40.0996 60.354 39.5168 61.5366C38.9167 62.7539 38.131 63.9097 37.6223 65.1939C37.2431 65.9829 36.7569 66.7671 36.3651 67.562C35.8159 68.6758 35.2334 70.003 34.578 71.0528L35.2917 71.2749C35.7733 71.4282 35.9787 71.4976 36.4235 71.7617L39.4912 65.1582C39.7583 64.585 39.9688 64.0279 40.2538 63.4429C41.751 60.3404 43.3601 57.293 45.078 54.3071C45.2962 53.9194 45.4719 53.5171 45.6985 53.1236C48.1261 48.9273 50.6207 44.7705 53.1813 40.6543C54.3678 38.7625 55.6402 36.8735 56.8365 34.9886C56.9713 34.7765 57.6241 33.9451 57.6544 33.842L57.6021 33.78Z" fill="black"/>
<path d="M28.2376 13.8779C28.3859 13.8734 28.5307 13.8721 28.6753 13.9107C28.8192 13.949 28.9211 14.0189 29.0348 14.113C29.6151 14.5933 35.4834 19.9134 35.5874 20.1343C35.6658 20.3012 35.657 20.531 35.5905 20.6995C35.4765 20.9883 35.2584 21.126 34.9814 21.2342C34.3659 21.2492 34.1497 20.835 33.7204 20.444L31.7023 18.6171L29.1237 16.2925C28.6981 15.9099 28.2069 15.5006 27.8132 15.0936C27.4065 14.6732 27.5935 13.9715 28.2376 13.8779Z" fill="black" fill-opacity="0.988235"/>
<path d="M22.8043 25.445C23.3961 25.5099 24.4507 25.7346 25.0576 25.8603L28.5842 26.5979C29.2376 26.732 30.1189 26.8121 30.7115 26.9889C31.4541 27.2106 31.297 28.198 30.5612 28.5015C29.7418 28.4269 22.6423 27.0248 22.273 26.8132C22.122 26.7266 22.0454 26.5632 22.0154 26.397C21.9797 26.1991 22.0081 25.9953 22.1237 25.8283C22.3071 25.5635 22.499 25.5068 22.8043 25.445Z" fill="black"/>
<path d="M39.5719 6.89094C39.9147 6.85861 40.2653 6.93625 40.3941 7.29499C40.6205 7.92526 40.7658 8.57995 40.9364 9.22663L41.8148 12.6954C42.0002 13.458 42.2446 14.2184 42.3928 14.9876C42.4696 15.3859 42.2886 15.6832 41.9179 15.8103C41.714 15.8259 41.1672 15.8469 41.0739 15.6144C40.923 15.2389 40.8236 14.8069 40.7191 14.4133C40.5316 13.5259 40.1742 12.6125 39.998 11.7309C39.7357 10.419 39.3577 9.16437 39.0408 7.86779C38.9141 7.34929 39.1196 7.10773 39.5719 6.89094Z" fill="black" fill-opacity="0.988235"/>
</svg>
